<mxfile host="app.diagrams.net" modified="2024-05-10T12:00:00.000Z" agent="Mozilla/5.0" etag="meeting-transcriber-aws-diagram" version="15.8.3" type="device">
  <diagram id="meeting-transcriber-architecture" name="Meeting Transcriber Architecture">
    <mxGraphModel dx="1422" dy="798" grid="1" gridSize="10" guides="1" tooltips="1" connect="1" arrows="1" fold="1" page="1" pageScale="1" pageWidth="1100" pageHeight="850" math="0" shadow="0">
      <root>
        <mxCell id="0" />
        <mxCell id="1" parent="0" />
        
        <!-- Title -->
        <mxCell id="title" value="Meeting Transcriber Architecture with AWS Icons" style="text;html=1;strokeColor=none;fillColor=none;align=center;verticalAlign=middle;whiteSpace=wrap;rounded=0;fontSize=24;fontStyle=1" vertex="1" parent="1">
          <mxGeometry x="250" y="20" width="600" height="40" as="geometry" />
        </mxCell>
        
        <!-- AWS Services Container -->
        <mxCell id="aws_services" value="AWS Cloud" style="points=[[0,0],[0.25,0],[0.5,0],[0.75,0],[1,0],[1,0.25],[1,0.5],[1,0.75],[1,1],[0.75,1],[0.5,1],[0.25,1],[0,1],[0,0.75],[0,0.5],[0,0.25]];outlineConnect=0;gradientColor=none;html=1;whiteSpace=wrap;fontSize=12;fontStyle=0;container=1;pointerEvents=0;collapsible=0;recursiveResize=0;shape=mxgraph.aws4.group;grIcon=mxgraph.aws4.group_aws_cloud;strokeColor=#232F3E;fillColor=none;verticalAlign=top;align=left;spacingLeft=30;fontColor=#232F3E;dashed=0;" vertex="1" parent="1">
          <mxGeometry x="600" y="100" width="300" height="400" as="geometry" />
        </mxCell>
        
        <!-- S3 Service -->
        <mxCell id="s3_service" value="Amazon S3" style="sketch=0;outlineConnect=0;fontColor=#232F3E;gradientColor=none;strokeColor=#ffffff;fillColor=#232F3E;dashed=0;verticalLabelPosition=middle;verticalAlign=bottom;align=center;html=1;whiteSpace=wrap;fontSize=10;fontStyle=1;spacing=3;shape=mxgraph.aws4.productIcon;prIcon=mxgraph.aws4.s3;" vertex="1" parent="aws_services">
          <mxGeometry x="40" y="50" width="80" height="100" as="geometry" />
        </mxCell>
        
        <!-- Transcribe Service -->
        <mxCell id="transcribe_service" value="Amazon Transcribe" style="sketch=0;outlineConnect=0;fontColor=#232F3E;gradientColor=none;strokeColor=#ffffff;fillColor=#232F3E;dashed=0;verticalLabelPosition=middle;verticalAlign=bottom;align=center;html=1;whiteSpace=wrap;fontSize=10;fontStyle=1;spacing=3;shape=mxgraph.aws4.productIcon;prIcon=mxgraph.aws4.transcribe;" vertex="1" parent="aws_services">
          <mxGeometry x="180" y="50" width="80" height="100" as="geometry" />
        </mxCell>
        
        <!-- Bedrock Service -->
        <mxCell id="bedrock_service" value="Amazon Bedrock" style="sketch=0;outlineConnect=0;fontColor=#232F3E;gradientColor=none;strokeColor=#ffffff;fillColor=#232F3E;dashed=0;verticalLabelPosition=middle;verticalAlign=bottom;align=center;html=1;whiteSpace=wrap;fontSize=10;fontStyle=1;spacing=3;shape=mxgraph.aws4.productIcon;prIcon=mxgraph.aws4.bedrock;" vertex="1" parent="aws_services">
          <mxGeometry x="110" y="180" width="80" height="100" as="geometry" />
        </mxCell>
        
        <!-- Application Components -->
        <mxCell id="app_container" value="Meeting Transcriber Application" style="fillColor=#EFF0F3;strokeColor=#5A6C86;dashed=1;verticalAlign=top;fontStyle=1;fontColor=#5A6C86;whiteSpace=wrap;html=1;" vertex="1" parent="1">
          <mxGeometry x="200" y="100" width="350" height="400" as="geometry" />
        </mxCell>
        
        <!-- GUI Component -->
        <mxCell id="gui_component" value="GUI Interface" style="outlineConnect=0;dashed=0;verticalLabelPosition=bottom;verticalAlign=top;align=center;html=1;shape=mxgraph.aws3.management_console;fillColor=#759C3E;gradientColor=none;" vertex="1" parent="1">
          <mxGeometry x="250" y="150" width="63" height="63" as="geometry" />
        </mxCell>
        
        <!-- Transcription Component -->
        <mxCell id="transcription_component" value="Transcription Module" style="outlineConnect=0;dashed=0;verticalLabelPosition=bottom;verticalAlign=top;align=center;html=1;shape=mxgraph.aws3.android;fillColor=#8C4FFF;gradientColor=none;" vertex="1" parent="1">
          <mxGeometry x="250" y="270" width="73.5" height="84" as="geometry" />
        </mxCell>
        
        <!-- Summarization Component -->
        <mxCell id="summarization_component" value="Summarization Module" style="outlineConnect=0;dashed=0;verticalLabelPosition=bottom;verticalAlign=top;align=center;html=1;shape=mxgraph.aws3.android;fillColor=#5294CF;gradientColor=none;" vertex="1" parent="1">
          <mxGeometry x="400" y="270" width="73.5" height="84" as="geometry" />
        </mxCell>
        
        <!-- Formatting Component -->
        <mxCell id="formatting_component" value="Notes Formatting" style="outlineConnect=0;dashed=0;verticalLabelPosition=bottom;verticalAlign=top;align=center;html=1;shape=mxgraph.aws3.documents;fillColor=#E05243;gradientColor=none;" vertex="1" parent="1">
          <mxGeometry x="330" y="390" width="63" height="78" as="geometry" />
        </mxCell>
        
        <!-- Input Files -->
        <mxCell id="input_files" value="Audio Files" style="outlineConnect=0;dashed=0;verticalLabelPosition=bottom;verticalAlign=top;align=center;html=1;shape=mxgraph.aws3.multimedia;fillColor=#2E73B8;gradientColor=none;" vertex="1" parent="1">
          <mxGeometry x="70" y="270" width="74.25" height="84" as="geometry" />
        </mxCell>
        
        <!-- Output Files -->
        <mxCell id="output_files" value="Meeting Notes" style="outlineConnect=0;dashed=0;verticalLabelPosition=bottom;verticalAlign=top;align=center;html=1;shape=mxgraph.aws3.documents;fillColor=#E05243;gradientColor=none;" vertex="1" parent="1">
          <mxGeometry x="950" y="270" width="63" height="78" as="geometry" />
        </mxCell>
        
        <!-- Flow Arrows -->
        <!-- Input to App -->
        <mxCell id="arrow_input_to_app" value="" style="edgeStyle=orthogonalEdgeStyle;rounded=0;orthogonalLoop=1;jettySize=auto;html=1;strokeColor=#232F3E;strokeWidth=2;" edge="1" parent="1" source="input_files" target="transcription_component">
          <mxGeometry relative="1" as="geometry" />
        </mxCell>
        
        <!-- App to AWS -->
        <mxCell id="arrow_app_to_s3" value="" style="edgeStyle=orthogonalEdgeStyle;rounded=0;orthogonalLoop=1;jettySize=auto;html=1;strokeColor=#232F3E;strokeWidth=2;entryX=0;entryY=0.5;entryDx=0;entryDy=0;entryPerimeter=0;" edge="1" parent="1" source="transcription_component" target="s3_service">
          <mxGeometry relative="1" as="geometry">
            <Array as="points">
              <mxPoint x="287" y="250" />
              <mxPoint x="580" y="250" />
              <mxPoint x="580" y="100" />
            </Array>
          </mxGeometry>
        </mxCell>
        
        <!-- AWS to App -->
        <mxCell id="arrow_transcribe_to_app" value="" style="edgeStyle=orthogonalEdgeStyle;rounded=0;orthogonalLoop=1;jettySize=auto;html=1;strokeColor=#232F3E;strokeWidth=2;exitX=0;exitY=0.5;exitDx=0;exitDy=0;exitPerimeter=0;" edge="1" parent="1" source="transcribe_service" target="summarization_component">
          <mxGeometry relative="1" as="geometry">
            <Array as="points">
              <mxPoint x="580" y="150" />
              <mxPoint x="580" y="312" />
            </Array>
          </mxGeometry>
        </mxCell>
        
        <!-- Bedrock to Summarization -->
        <mxCell id="arrow_bedrock_to_summarize" value="" style="edgeStyle=orthogonalEdgeStyle;rounded=0;orthogonalLoop=1;jettySize=auto;html=1;strokeColor=#232F3E;strokeWidth=2;exitX=0;exitY=0.5;exitDx=0;exitDy=0;exitPerimeter=0;" edge="1" parent="1" source="bedrock_service" target="summarization_component">
          <mxGeometry relative="1" as="geometry">
            <Array as="points">
              <mxPoint x="550" y="230" />
              <mxPoint x="550" y="312" />
            </Array>
          </mxGeometry>
        </mxCell>
        
        <!-- Summarization to Formatting -->
        <mxCell id="arrow_summarize_to_format" value="" style="edgeStyle=orthogonalEdgeStyle;rounded=0;orthogonalLoop=1;jettySize=auto;html=1;strokeColor=#232F3E;strokeWidth=2;" edge="1" parent="1" source="summarization_component" target="formatting_component">
          <mxGeometry relative="1" as="geometry" />
        </mxCell>
        
        <!-- Formatting to Output -->
        <mxCell id="arrow_format_to_output" value="" style="edgeStyle=orthogonalEdgeStyle;rounded=0;orthogonalLoop=1;jettySize=auto;html=1;strokeColor=#232F3E;strokeWidth=2;" edge="1" parent="1" source="formatting_component" target="output_files">
          <mxGeometry relative="1" as="geometry" />
        </mxCell>
        
        <!-- Workflow Description -->
        <mxCell id="workflow_title" value="Application Workflow" style="text;html=1;strokeColor=none;fillColor=none;align=center;verticalAlign=middle;whiteSpace=wrap;rounded=0;fontSize=16;fontStyle=1" vertex="1" parent="1">
          <mxGeometry x="40" y="520" width="160" height="30" as="geometry" />
        </mxCell>
        <mxCell id="workflow_description" value="1. Audio files are uploaded to S3 bucket&#xa;2. AWS Transcribe processes audio and generates transcript with speaker diarization&#xa;3. AWS Bedrock (Claude/Titan) analyzes transcript and generates structured meeting notes&#xa;4. Notes are formatted with summary, key takeaways, action items, and decisions&#xa;5. Final transcript and meeting notes are saved to the output directory" style="text;html=1;strokeColor=none;fillColor=none;align=left;verticalAlign=top;whiteSpace=wrap;rounded=0;" vertex="1" parent="1">
          <mxGeometry x="40" y="550" width="820" height="80" as="geometry" />
        </mxCell>
      </root>
    </mxGraphModel>
  </diagram>
</mxfile>